<svg width="64" height="62" viewBox="0 0 64 62" fill="none" xmlns="http://www.w3.org/2000/svg">
<ellipse cx="31.9153" cy="31" rx="31.5254" ry="31" fill="white"/>
<path d="M33.5 9.02482L18.3911 9.05174C16.874 9.05445 15.6463 10.2611 15.649 11.7467L15.7184 49.4081C15.7212 50.8937 16.9534 52.096 18.4704 52.0933L44.5676 52.0468C46.0847 52.0441 47.3125 50.8374 47.3097 49.3518L47.2602 22.4515L33.5 9.02482ZM44.5151 23.5708L44.5156 23.8008L32.1537 23.8228L32.1314 11.7174L32.3677 11.7169L44.5151 23.5708ZM18.4655 49.4032L18.3961 11.7418L29.3844 11.7223L29.4116 26.5178L44.5205 26.4909L44.5627 49.3567L18.4655 49.4032Z" fill="url(#paint0_linear_477_339)"/>
<defs>
<linearGradient id="paint0_linear_477_339" x1="37.7659" y1="13.3214" x2="17.8904" y2="41.9998" gradientUnits="userSpaceOnUse">
<stop stop-color="#3D9378"/>
<stop offset="1" stop-color="#1F674F"/>
</linearGradient>
</defs>
</svg>
