<svg width="38" height="27" viewBox="0 0 38 27" fill="none" xmlns="http://www.w3.org/2000/svg">
<path fill-rule="evenodd" clip-rule="evenodd" d="M4.20792 12.2547C4.20792 12.5465 3.98348 12.8158 3.75903 13.0402C3.98348 13.2647 4.20792 13.5116 4.20792 13.8034C4.88125 14.7685 5.77903 16.0478 6.90125 17.3271C9.37014 19.8633 13.1857 22.3547 18.5724 22.3547C23.959 22.3547 27.5501 19.8633 30.019 17.3271C31.3657 16.0478 32.2635 14.7685 32.7124 13.8034C32.9368 13.5116 33.1612 13.2647 33.1612 13.0402C33.1612 12.8158 32.9368 12.5465 32.7124 12.2547C32.2635 11.2896 31.3657 10.0102 30.019 8.73091C27.5501 6.19469 23.959 3.7258 18.5724 3.7258C13.1857 3.7258 9.37014 6.19469 6.90125 8.73091C5.77903 10.0102 4.88125 11.2896 4.20792 12.2547ZM36.9772 13.7809C36.9772 13.7584 36.9772 13.7584 35.4061 13.0402L36.9772 13.7584C37.2017 13.3095 37.2017 12.7709 36.9772 12.2995L35.4061 13.0402C36.9772 12.2995 36.9772 12.2995 36.9772 12.2995V12.2995V12.2995V12.2771V12.2547C36.9772 12.2098 36.9772 12.1649 36.9772 12.12C36.9772 12.0302 36.7528 11.8955 36.7528 11.716C36.5283 11.3793 36.3039 10.8856 35.855 10.3244C35.1817 9.17977 34.2839 7.676 32.7128 6.14977C29.795 3.09733 25.0817 0 18.5728 0C11.8394 0 7.35055 3.09733 4.43278 6.14977C2.86167 7.676 1.73944 9.17977 1.06611 10.3244C0.841666 10.8856 0.617222 11.3793 0.392778 11.716C0.168333 11.8955 0.168333 12.0302 0.168333 12.12C0.168333 12.1649 0.168333 12.2098 0.168333 12.2547V12.2771V12.2995V12.2995V12.2995C0.168333 12.2995 0.168333 12.2995 1.73944 13.0402L0.168333 12.2995C-0.0561111 12.7709 -0.0561111 13.3095 0.168333 13.7584L1.73944 13.0402C0.168333 13.7584 0.168333 13.7584 0.168333 13.7809V13.7809V13.7809V13.7809V13.8258C0.168333 13.8482 0.168333 13.8931 0.168333 13.938C0.168333 14.0502 0.168333 14.1849 0.392778 14.3644C0.617222 14.7011 0.841666 15.1724 1.06611 15.756C1.73944 16.8782 2.86167 18.4044 4.43278 19.9082C7.35055 22.9607 11.8394 26.0804 18.5728 26.0804C25.0817 26.0804 29.795 22.9607 32.7128 19.9082C34.2839 18.4044 35.1817 16.8782 35.855 15.756C36.3039 15.1724 36.5283 14.7011 36.7528 14.3644C36.7528 14.1849 36.9772 14.0502 36.9772 13.938C36.9772 13.8931 36.9772 13.8482 36.9772 13.8258V13.7809V13.7809V13.7809V13.7809ZM18.5731 16.7661C16.5531 16.7661 14.7576 15.0828 14.7576 13.0404C14.7576 10.9755 16.5531 9.31458 18.5731 9.31458C20.5931 9.31458 22.1642 10.9755 22.1642 13.0404C22.1642 15.0828 20.5931 16.7661 18.5731 16.7661ZM11.165 13.0403C11.165 8.9105 14.5317 5.58873 18.5717 5.58873C22.6117 5.58873 25.9784 8.9105 25.9784 13.0403C25.9784 17.1476 22.6117 20.4918 18.5717 20.4918C14.5317 20.4918 11.165 17.1476 11.165 13.0403Z" fill="white"/>
</svg>
