<svg width="48" height="48" viewBox="0 0 48 48" fill="none" xmlns="http://www.w3.org/2000/svg">
<g clip-path="url(#clip0_179_581)">
<path d="M22.9905 4C12.493 4 4 12.5025 4 23C4 33.4975 12.493 42 22.9905 42C33.488 42 42 33.4975 42 23C42 12.5025 33.488 4 22.9905 4ZM23 38.2C14.602 38.2 7.8 31.398 7.8 23C7.8 14.602 14.602 7.8 23 7.8C31.398 7.8 38.2 14.602 38.2 23C38.2 31.398 31.398 38.2 23 38.2Z" fill="url(#paint0_linear_179_581)"/>
<path d="M24 13H21V25L31.49 31.3L33 28.84L24 23.5V13Z" fill="url(#paint1_linear_179_581)"/>
</g>
<defs>
<linearGradient id="paint0_linear_179_581" x1="30.6" y1="7.8" x2="15.4" y2="37.5667" gradientUnits="userSpaceOnUse">
<stop stop-color="#3D9378"/>
<stop offset="1" stop-color="#1F674F"/>
</linearGradient>
<linearGradient id="paint1_linear_179_581" x1="29.4" y1="14.83" x2="20.639" y2="26.0805" gradientUnits="userSpaceOnUse">
<stop stop-color="#3D9378"/>
<stop offset="1" stop-color="#1F674F"/>
</linearGradient>
<clipPath id="clip0_179_581">
<rect width="48" height="48" fill="white"/>
</clipPath>
</defs>
</svg>
