<svg width="56" height="56" viewBox="0 0 56 56" fill="none" xmlns="http://www.w3.org/2000/svg">
<path d="M16.24 32.48C25.2091 32.48 32.48 25.2091 32.48 16.24C32.48 7.2709 25.2091 0 16.24 0C7.2709 0 0 7.2709 0 16.24C0 25.2091 7.2709 32.48 16.24 32.48Z" fill="url(#paint0_linear_179_479)"/>
<path d="M39.76 56C48.7291 56 56 48.7291 56 39.76C56 30.7909 48.7291 23.52 39.76 23.52C30.7909 23.52 23.52 30.7909 23.52 39.76C23.52 48.7291 30.7909 56 39.76 56Z" fill="url(#paint1_linear_179_479)"/>
<path d="M28 54.8801C42.8454 54.8801 54.88 42.8455 54.88 28.0001C54.88 13.1547 42.8454 1.12012 28 1.12012C13.1546 1.12012 1.12 13.1547 1.12 28.0001C1.12 42.8455 13.1546 54.8801 28 54.8801Z" fill="url(#paint2_linear_179_479)"/>
<path fill-rule="evenodd" clip-rule="evenodd" d="M21.029 27.4895C19.9782 26.7973 19.1015 25.8716 18.4673 24.7847C17.8546 23.6371 17.5521 22.3494 17.5898 21.049C17.5432 19.3986 18.1063 17.7888 19.1715 16.5274C20.2784 15.2606 21.701 14.3097 23.2948 13.7714C25.0285 13.1592 26.8552 12.8518 28.6938 12.863C29.8971 12.8516 31.099 12.9438 32.2864 13.1386C33.1358 13.2699 33.97 13.4853 34.7768 13.7816C35.5179 14.0326 36.1869 14.46 36.7262 15.0268C37.1238 15.4931 37.3378 16.0882 37.3284 16.7008C37.3427 17.0191 37.2942 17.337 37.1856 17.6365C37.077 17.936 36.9105 18.2111 36.6956 18.4462C36.492 18.6629 36.2449 18.834 35.9705 18.9484C35.6961 19.0627 35.4006 19.1177 35.1034 19.1097C34.6943 19.1067 34.2907 19.0162 33.9195 18.8442C33.0057 18.4352 32.0644 18.0908 31.1025 17.8134C30.2167 17.5801 29.3037 17.4668 28.3878 17.4766C27.1949 17.4324 26.0147 17.7336 24.989 18.3441C24.5558 18.6073 24.2012 18.982 23.9624 19.4291C23.7236 19.8762 23.6094 20.3793 23.6316 20.8857C23.6253 21.5499 23.8778 22.1906 24.3358 22.6718C24.8804 23.2365 25.5238 23.6966 26.2343 24.0293C27.0304 24.4242 28.2177 24.9482 29.7961 25.6012C29.9711 25.6565 30.1417 25.7248 30.3065 25.8054C31.8468 26.4146 33.3236 27.1735 34.7155 28.0713C35.8151 28.7883 36.7422 29.7399 37.4304 30.8578C38.1076 32.0321 38.4467 33.371 38.4102 34.7261C38.4671 36.386 37.9914 38.0206 37.0526 39.3907C36.0968 40.6878 34.7745 41.669 33.2561 42.2079C31.4265 42.8613 29.4932 43.176 27.5508 43.1367C24.8815 43.2307 22.2248 42.7285 19.7739 41.6669C19.1467 41.3879 18.5967 40.9606 18.1715 40.4217C17.819 39.9282 17.6363 39.3336 17.6509 38.7273C17.6333 38.4074 17.6854 38.0876 17.8034 37.7897C17.9214 37.4919 18.1027 37.2233 18.3346 37.0023C18.8215 36.5759 19.4536 36.353 20.1003 36.3797C20.8199 36.3897 21.5268 36.5716 22.1618 36.9104C22.9509 37.3053 23.5735 37.6014 24.0297 37.7986C24.5508 38.0169 25.0905 38.1877 25.6423 38.3089C26.3225 38.4583 27.0175 38.5302 27.7139 38.5231C28.9452 38.6107 30.1704 38.2838 31.1944 37.5944C31.5778 37.2944 31.8842 36.9074 32.0883 36.4655C32.2924 36.0235 32.3883 35.5393 32.368 35.0529C32.3695 34.3625 32.1066 33.6977 31.6333 33.1952C31.0078 32.5508 30.2759 32.0191 29.4697 31.6234C28.5169 31.1199 27.1764 30.5075 25.4483 29.7861C23.9021 29.1701 22.4217 28.4008 21.029 27.4895" fill="white"/>
<path opacity="0.1" fill-rule="evenodd" clip-rule="evenodd" d="M21.3136 0.817568C20.6034 0.57981 19.8774 0.392674 19.1408 0.257568C14.7185 1.67679 10.6985 4.13027 7.41437 7.41437C4.13027 10.6985 1.67679 14.7185 0.257568 19.1408C0.392698 19.8774 0.579833 20.6034 0.817568 21.3136C1.01612 21.9565 1.26709 22.5821 1.56797 23.184C2.54084 17.8083 5.13205 12.8579 8.99497 8.99497C12.8579 5.13205 17.8083 2.54084 23.184 1.56797C22.5821 1.26713 21.9565 1.01616 21.3136 0.817568Z" fill="black"/>
<path opacity="0.1" fill-rule="evenodd" clip-rule="evenodd" d="M21.3136 0.817627C16.3534 2.04101 11.8221 4.59716 8.20958 8.20964C4.5971 11.8221 2.04095 16.3535 0.817566 21.3136C1.01612 21.9566 1.26709 22.5821 1.56797 23.184C2.54083 17.8084 5.13205 12.8579 8.99497 8.99503C12.8579 5.13211 17.8083 2.5409 23.184 1.56803C22.5821 1.26719 21.9565 1.01621 21.3136 0.817627Z" fill="black"/>
<path opacity="0.1" fill-rule="evenodd" clip-rule="evenodd" d="M55.1824 34.6863C54.9839 34.0434 54.7329 33.4178 54.432 32.8159C53.4592 38.1916 50.8679 43.142 47.005 47.0049C43.1421 50.8679 38.1917 53.4591 32.816 54.4319C33.4179 54.7328 34.0435 54.9838 34.6864 55.1823C35.3965 55.4201 36.1226 55.6072 36.8592 55.7423C41.2815 54.3231 45.3015 51.8696 48.5856 48.5855C51.8697 45.3014 54.3232 41.2814 55.7424 36.8591C55.6073 36.1225 55.4201 35.3965 55.1824 34.6863Z" fill="black"/>
<path opacity="0.1" fill-rule="evenodd" clip-rule="evenodd" d="M54.432 32.8159C53.4592 38.1916 50.8679 43.142 47.005 47.0049C43.1421 50.8679 38.1917 53.4591 32.816 54.4319C33.4179 54.7328 34.0435 54.9838 34.6864 55.1823C39.6466 53.9589 44.1779 51.4028 47.7904 47.7903C51.4029 44.1778 53.959 39.6465 55.1824 34.6863C54.9839 34.0434 54.7329 33.4178 54.432 32.8159Z" fill="black"/>
<defs>
<linearGradient id="paint0_linear_179_479" x1="22.736" y1="3.248" x2="9.744" y2="28.6907" gradientUnits="userSpaceOnUse">
<stop stop-color="#3D9378"/>
<stop offset="1" stop-color="#1F674F"/>
</linearGradient>
<linearGradient id="paint1_linear_179_479" x1="46.256" y1="26.768" x2="33.264" y2="52.2107" gradientUnits="userSpaceOnUse">
<stop stop-color="#3D9378"/>
<stop offset="1" stop-color="#1F674F"/>
</linearGradient>
<linearGradient id="paint2_linear_179_479" x1="38.752" y1="6.49612" x2="17.248" y2="48.6081" gradientUnits="userSpaceOnUse">
<stop stop-color="#3D9378"/>
<stop offset="1" stop-color="#1F674F"/>
</linearGradient>
</defs>
</svg>
