<svg width="25" height="24" viewBox="0 0 25 24" fill="none" xmlns="http://www.w3.org/2000/svg">
<g clip-path="url(#clip0_178_314)">
<path d="M24.3091 12C24.3091 5.37188 18.868 0 12.1545 0C5.44106 0 0 5.37188 0 12C0 17.9906 4.444 22.9547 10.2554 23.8547V15.4688H7.16928V12H10.2554V9.35625C10.2554 6.34922 12.0691 4.6875 14.8466 4.6875C16.176 4.6875 17.5671 4.92188 17.5671 4.92188V7.875H16.0335C14.5237 7.875 14.0537 8.80078 14.0537 9.75V12H17.4247L16.8858 15.4688H14.0537V23.8547C19.8651 22.9547 24.3091 17.9906 24.3091 12Z" fill="white"/>
</g>
<defs>
<clipPath id="clip0_178_314">
<rect width="24.3091" height="24" fill="white"/>
</clipPath>
</defs>
</svg>
