<svg width="40" height="32" viewBox="0 0 40 32" fill="none" xmlns="http://www.w3.org/2000/svg">
<path d="M39.5083 24.45C34.4333 19.625 27.5583 16.6667 20 16.6667C12.4417 16.6667 5.56667 19.625 0.491667 24.45C0.183333 24.75 0 25.175 0 25.6333C0 26.0917 0.183333 26.5083 0.491667 26.8083L4.61667 30.9333C4.91667 31.2333 5.33333 31.425 5.79167 31.425C6.24167 31.425 6.65833 31.2417 6.95833 30.95C8.28333 29.725 9.775 28.6833 11.4 27.8667C11.95 27.5917 12.3333 27.025 12.3333 26.3667V21.1917C14.75 20.4167 17.325 20 20 20C22.675 20 25.25 20.4167 27.6667 21.2V26.375C27.6667 27.0333 28.05 27.6 28.6 27.875C30.225 28.6917 31.725 29.7333 33.0417 30.9583C33.3417 31.25 33.75 31.4333 34.2083 31.4333C34.6667 31.4333 35.0833 31.25 35.3917 30.9417L39.5167 26.8167C39.8167 26.5167 40.0083 26.1 40.0083 25.6417C40 25.175 39.8167 24.75 39.5083 24.45ZM35.2667 7.09167L32.9083 4.73333L26.975 10.6667L29.3333 13.025C29.3333 13.025 35.0833 7.15833 35.2667 7.09167ZM21.6667 0H18.3333V8.33333H21.6667V0ZM10.6667 13.025L13.025 10.6667L7.09167 4.73333L4.73333 7.09167C4.91667 7.15833 10.6667 13.025 10.6667 13.025Z" fill="url(#paint0_linear_179_571)"/>
<defs>
<linearGradient id="paint0_linear_179_571" x1="28.0058" y1="3.14333" x2="17.2782" y2="29.8827" gradientUnits="userSpaceOnUse">
<stop stop-color="#3D9378"/>
<stop offset="1" stop-color="#1F674F"/>
</linearGradient>
</defs>
</svg>
