<svg width="25" height="24" viewBox="0 0 25 24" fill="none" xmlns="http://www.w3.org/2000/svg">
<path fill-rule="evenodd" clip-rule="evenodd" d="M12.1545 0C5.44177 0 0 5.37258 0 12C0 18.6274 5.44177 24 12.1545 24C18.8673 24 24.3091 18.6274 24.3091 12C24.3091 5.37258 18.8673 0 12.1545 0ZM9.48218 5.63864C10.1736 5.60758 10.3946 5.59998 12.1551 5.59998H12.1531C13.9142 5.59998 14.1343 5.60758 14.8258 5.63864C15.5159 5.66984 15.9872 5.77771 16.4005 5.93598C16.8272 6.09931 17.1878 6.31798 17.5484 6.67399C17.909 7.02972 18.1305 7.38679 18.2966 7.80773C18.456 8.21467 18.5654 8.67974 18.5978 9.36108C18.6288 10.0438 18.6369 10.2619 18.6369 12C18.6369 13.7382 18.6288 13.9558 18.5978 14.6385C18.5654 15.3195 18.456 15.7847 18.2966 16.1918C18.1305 16.6126 17.909 16.9697 17.5484 17.3254C17.1882 17.6814 16.8271 17.9006 16.4009 18.0641C15.9884 18.2224 15.5168 18.3302 14.8267 18.3614C14.1353 18.3925 13.915 18.4001 12.1543 18.4001C10.3939 18.4001 10.1731 18.3925 9.48164 18.3614C8.79166 18.3302 8.32046 18.2224 7.90801 18.0641C7.48192 17.9006 7.12025 17.6814 6.76007 17.3254C6.39962 16.9697 6.17813 16.6126 6.01242 16.1917C5.85225 15.7847 5.743 15.3197 5.71126 14.6383C5.67993 13.9557 5.67209 13.7382 5.67209 12C5.67209 10.2619 5.6802 10.0436 5.71112 9.36095C5.74219 8.67987 5.85158 8.21467 6.01229 7.8076C6.1784 7.38679 6.39989 7.02972 6.76048 6.67399C7.1208 6.31812 7.48246 6.09945 7.90882 5.93598C8.321 5.77771 8.79206 5.66984 9.48218 5.63864Z" fill="white"/>
<path fill-rule="evenodd" clip-rule="evenodd" d="M11.5736 6.75355C11.6866 6.75338 11.808 6.75343 11.9391 6.75349L12.1552 6.75355C13.886 6.75355 14.0911 6.75969 14.7746 6.79035C15.4067 6.81889 15.7497 6.92315 15.9782 7.01076C16.2807 7.12676 16.4964 7.26543 16.7232 7.48943C16.9501 7.71343 17.0905 7.92677 17.2083 8.22544C17.297 8.45077 17.4027 8.78944 17.4315 9.41345C17.4626 10.0881 17.4693 10.2908 17.4693 11.9988C17.4693 13.7068 17.4626 13.9095 17.4315 14.5842C17.4026 15.2082 17.297 15.5468 17.2083 15.7722C17.0908 16.0709 16.9501 16.2835 16.7232 16.5074C16.4963 16.7314 16.2809 16.8701 15.9782 16.9861C15.75 17.0741 15.4067 17.1781 14.7746 17.2066C14.0913 17.2373 13.886 17.2439 12.1552 17.2439C10.4242 17.2439 10.2191 17.2373 9.53571 17.2066C8.90366 17.1778 8.56063 17.0735 8.33199 16.9859C8.02947 16.8699 7.81339 16.7313 7.5865 16.5073C7.35962 16.2833 7.21916 16.0705 7.1014 15.7716C7.01267 15.5463 6.90692 15.2076 6.87816 14.5836C6.84709 13.909 6.84088 13.7063 6.84088 11.9972C6.84088 10.2881 6.84709 10.0865 6.87816 9.41185C6.90706 8.78784 7.01267 8.44917 7.1014 8.22357C7.21889 7.9249 7.35962 7.71156 7.5865 7.48756C7.81339 7.26356 8.02947 7.12489 8.33199 7.00862C8.5605 6.92062 8.90366 6.81662 9.53571 6.78795C10.1337 6.76129 10.3655 6.75329 11.5736 6.75195V6.75355ZM15.6155 7.81618C15.186 7.81618 14.8376 8.15979 14.8376 8.58393C14.8376 9.00793 15.186 9.35193 15.6155 9.35193C16.0449 9.35193 16.3934 9.00793 16.3934 8.58393C16.3934 8.15992 16.0449 7.81592 15.6155 7.81592V7.81618ZM8.82615 12.0003C8.82615 10.1853 10.3166 8.71369 12.155 8.71362C13.9935 8.71362 15.4837 10.1852 15.4837 12.0003C15.4837 13.8154 13.9936 15.2864 12.1552 15.2864C10.3167 15.2864 8.82615 13.8154 8.82615 12.0003Z" fill="white"/>
<path d="M12.1552 9.8667C13.3485 9.8667 14.316 10.8218 14.316 12.0001C14.316 13.1782 13.3485 14.1334 12.1552 14.1334C10.9617 14.1334 9.99432 13.1782 9.99432 12.0001C9.99432 10.8218 10.9617 9.8667 12.1552 9.8667V9.8667Z" fill="white"/>
</svg>
