<svg width="25" height="25" viewBox="0 0 25 25" fill="none" xmlns="http://www.w3.org/2000/svg">
<path fill-rule="evenodd" clip-rule="evenodd" d="M0 12.3136C0 5.51298 5.44177 0 12.1545 0C18.8673 0 24.3091 5.51298 24.3091 12.3136C24.3091 19.1142 18.8673 24.6272 12.1545 24.6272C5.44177 24.6272 0 19.1142 0 12.3136ZM12.1463 12.5113C13.9386 12.5113 15.3956 11.0863 15.3956 9.33452C15.3956 7.58215 13.9386 6.1568 12.1463 6.1568C10.3544 6.1568 8.89701 7.58215 8.89701 9.33452C8.89701 11.0863 10.3544 12.5113 12.1463 12.5113ZM15.356 14.3407C14.7685 14.7016 14.1306 14.9575 13.4692 15.1048L15.2857 16.8813C15.6578 17.2445 15.6578 17.8342 15.2857 18.1978C14.9139 18.5613 14.3114 18.5613 13.9401 18.1978L12.1542 16.452L10.3699 18.1978C10.1838 18.3793 9.94 18.4702 9.69621 18.4702C9.4528 18.4702 9.20939 18.3793 9.02333 18.1978C8.65161 17.8342 8.65161 17.2449 9.02294 16.8813L10.8396 15.1048C10.1782 14.9575 9.54028 14.7012 8.95276 14.3407C8.50813 14.0666 8.37457 13.4922 8.65472 13.057C8.93409 12.6213 9.52162 12.4901 9.96703 12.7642C11.2972 13.5825 13.0108 13.5827 14.3418 12.7642C14.7872 12.4901 15.3745 12.6213 15.6545 13.057C15.9346 13.4918 15.8007 14.0666 15.356 14.3407Z" fill="white"/>
<path d="M12.1463 8.01904C12.8882 8.01904 13.4917 8.609 13.4917 9.33451C13.4917 10.0594 12.8882 10.6498 12.1463 10.6498C11.405 10.6498 10.8009 10.0594 10.8009 9.33451C10.8009 8.609 11.405 8.01904 12.1463 8.01904V8.01904Z" fill="white"/>
</svg>
