<svg width="29" height="29" viewBox="0 0 29 29" fill="none" xmlns="http://www.w3.org/2000/svg">
<path d="M20.1878 17.7653H18.9038L18.4597 17.3211C20.0424 15.4881 20.9953 13.1059 20.9953 10.4977C20.9953 4.69972 16.2956 0 10.4977 0C4.69972 0 0 4.69972 0 10.4977C0 16.2956 4.69972 20.9953 10.4977 20.9953C13.1059 20.9953 15.4881 20.0424 17.3211 18.4678L17.7653 18.9119V20.1878L25.8404 28.2468L28.2468 25.8404L20.1878 17.7653ZM10.4977 17.7653C6.48432 17.7653 3.23005 14.511 3.23005 10.4977C3.23005 6.48432 6.48432 3.23005 10.4977 3.23005C14.511 3.23005 17.7653 6.48432 17.7653 10.4977C17.7653 14.511 14.511 17.7653 10.4977 17.7653Z" fill="white"/>
</svg>
