<svg width="57" height="57" viewBox="0 0 57 57" fill="none" xmlns="http://www.w3.org/2000/svg">
<path fill-rule="evenodd" clip-rule="evenodd" d="M20.2876 0.883301H37.4788C53.1683 0.883301 56.8832 4.59819 56.8832 20.2877V37.4789C56.8832 53.1684 53.1683 56.8833 37.4788 56.8833H20.2876C4.59811 56.8833 0.883224 53.1684 0.883224 37.4789V20.2877C0.883224 4.59819 4.59811 0.883301 20.2876 0.883301Z" fill="url(#paint0_linear_179_475)"/>
<path fill-rule="evenodd" clip-rule="evenodd" d="M46.7266 20.1692C47.0032 19.2998 46.7266 18.6674 45.5015 18.6674H41.4309C40.4034 18.6674 39.9291 19.2207 39.6525 19.8135C39.6525 19.8135 37.5579 24.8721 34.6334 28.1523C33.6849 29.1008 33.2502 29.4169 32.7365 29.4169C32.4598 29.4169 32.1041 29.1008 32.1041 28.2313V20.1297C32.1041 19.1022 31.788 18.6279 30.9185 18.6279H24.5163C23.884 18.6279 23.4888 19.1022 23.4888 19.5764C23.4888 20.5644 24.951 20.8015 25.1091 23.5679V29.575C25.1091 30.8792 24.872 31.1163 24.3582 31.1163C22.975 31.1163 19.6158 26.0182 17.6003 20.2087C17.2051 19.0627 16.8099 18.6279 15.7823 18.6279H11.6722C10.4866 18.6279 10.289 19.1812 10.289 19.774C10.289 20.8411 11.6722 26.2158 16.7308 33.3294C20.09 38.1904 24.872 40.7987 29.1796 40.7987C31.788 40.7987 32.1041 40.2059 32.1041 39.2179V35.5425C32.1041 34.3569 32.3413 34.1593 33.1712 34.1593C33.764 34.1593 34.831 34.4755 37.2417 36.8072C40.0082 39.5736 40.4824 40.8382 42.0237 40.8382H46.0943C47.2799 40.8382 47.8331 40.2454 47.517 39.0993C47.1613 37.9533 45.8176 36.2934 44.0787 34.3174C43.1302 33.2108 41.7075 31.9857 41.2728 31.3929C40.68 30.6025 40.8381 30.2864 41.2728 29.575C41.2333 29.575 46.2128 22.5404 46.7266 20.1692Z" fill="white"/>
<defs>
<linearGradient id="paint0_linear_179_475" x1="40.0832" y1="6.4833" x2="17.6832" y2="50.35" gradientUnits="userSpaceOnUse">
<stop stop-color="#3D9378"/>
<stop offset="1" stop-color="#1F674F"/>
</linearGradient>
</defs>
</svg>
