<svg width="26" height="25" viewBox="0 0 26 25" fill="none" xmlns="http://www.w3.org/2000/svg">
<path fill-rule="evenodd" clip-rule="evenodd" d="M16.6697 0.950195H9.2071C2.39644 0.950195 0.783844 2.54229 0.783844 9.26636V16.634C0.783844 23.3581 2.39644 24.9502 9.2071 24.9502H16.6697C23.4803 24.9502 25.0929 23.3581 25.0929 16.634V9.26636C25.0929 2.54229 23.4803 0.950195 16.6697 0.950195ZM20.1522 8.57187C20.684 8.57187 20.8041 8.84286 20.684 9.21548C20.4966 10.0695 18.9403 12.3347 18.4582 13.0364C18.3667 13.1697 18.3139 13.2465 18.3166 13.2465C18.1279 13.5514 18.0593 13.6869 18.3166 14.0256C18.4096 14.1509 18.6069 14.342 18.8323 14.5604C19.0642 14.785 19.3259 15.0385 19.5346 15.279C20.2894 16.1259 20.8727 16.8372 21.0271 17.3284C21.1644 17.8196 20.9242 18.0736 20.4095 18.0736H18.6425C18.1743 18.0736 17.9329 17.8081 17.4185 17.2423C17.1979 16.9997 16.9271 16.7018 16.5667 16.346C15.5203 15.3467 15.0571 15.2112 14.7998 15.2112C14.4395 15.2112 14.3366 15.2959 14.3366 15.804V17.3792C14.3366 17.8026 14.1993 18.0567 13.0671 18.0567C11.1971 18.0567 9.12134 16.9388 7.66314 14.8556C5.46726 11.8069 4.86682 9.50341 4.86682 9.04611C4.86682 8.79205 4.9526 8.55493 5.46726 8.55493H7.25141C7.69745 8.55493 7.869 8.74124 8.04056 9.23242C8.91548 11.7222 10.3737 13.9071 10.9741 13.9071C11.1971 13.9071 11.3001 13.8055 11.3001 13.2465V10.6721C11.2577 9.94032 10.9997 9.62149 10.8084 9.38507C10.6897 9.23844 10.5967 9.12351 10.5967 8.96142C10.5967 8.75818 10.7683 8.55493 11.0427 8.55493H13.8219C14.1993 8.55493 14.3366 8.75818 14.3366 9.19854V12.6707C14.3366 13.0433 14.491 13.1788 14.611 13.1788C14.8341 13.1788 15.0228 13.0433 15.4345 12.6368C16.704 11.231 17.6132 9.06305 17.6132 9.06305C17.7333 8.80899 17.9392 8.57187 18.3852 8.57187H20.1522Z" fill="white"/>
</svg>
